<mxfile host="app.diagrams.net" modified="2024-04-03T05:30:38.647Z" agent="Mozilla/5.0 (Windows NT 10.0; Win64; x64) AppleWebKit/537.36 (KHTML, like Gecko) Chrome/123.0.0.0 Safari/537.36" version="24.2.1" etag="TKtjeaEVmeka_A52hv_U" type="github">
  <diagram name="Page-1" id="H5OSEZrTZ5LjsTF8r83E">
    <mxGraphModel>
      <root>
        <mxCell id="0" />
        <mxCell id="1" parent="0" />
      </root>
    </mxGraphModel>
  </diagram>
</mxfile>
